<svg version="1" xmlns="http://www.w3.org/2000/svg" width="2776" height="2776" viewBox="0 0 2082.000000 2082.000000"><path d="M1196.5.7c-3.8 1-26 10.1-36.7 15.1-16 7.5-29.5 15.2-48.3 27.8-23.4 15.5-44.7 32.5-70.9 56.3-4.6 4.2-8.7 7.1-10 7.1-3.7 0-15.1-6.1-41.9-22.3-21.6-13.1-27.8-16.4-38.3-20.2-24.9-9-40.7-12-60.4-11.2-16.3.6-23.2 2.3-36.9 8.9l-10.3 4.9 8.9 9.2c41.4 42.4 69.3 121.4 58.3 164.9-.7 2.6-1.7 5.1-2.4 5.6-1.5 1.2-22.2 8.6-32.5 11.7-10.6 3.2-22.2 4.6-28.6 3.5-11.7-1.9-14.3-4.3-19.5-17.7-18.8-48-26.9-94.7-24.1-138.6 1.8-27.7 6.6-55.2 14.7-84 2-7 3.4-13.4 3-14.2-.6-1.8-1-1.6-14.1 4.5C774 27.2 748 50.9 724.7 86.5c-9.9 15.3-16.5 27.2-34.5 62-9 17.6-17.2 32.6-18 33.2-2.7 2.2-12.6 1.4-31.5-2.3l-18.2-3.6-29 .5c-40.3.8-54.4 3.2-74.1 12.6-5.6 2.7-13 6.8-16.5 9.2-6.9 4.6-17.3 12.7-17.6 13.8-.1.3 8.4 6.4 18.9 13.6 71 48.2 96.2 76.5 104.9 118 1 4.9 1.9 12 1.9 15.7v6.7l-9.6 5.8c-5.2 3.2-16.3 10.2-24.5 15.5-16.8 10.9-17.4 11.1-28.1 7.8-26.3-8.1-52.2-43.1-76.6-103.5-3.3-8.3-9.7-25.4-14.2-38-7.9-22-8.4-23.9-11.1-42.5-1.5-10.7-3.3-21.5-3.9-24-1.5-6.5-5.1-16-6-16-1.3 0-14.1 16.5-21 27-11.6 17.8-23.4 44.9-29 66.9-7.1 28.3-10.5 57.9-12.5 110.2l-.7 16.6-15.1 3.2c-54.9 11.9-82.2 21.4-105.2 36.6-15 9.9-28.8 25.8-36.5 42-4 8.3-7.1 17.5-6.4 18.6.3.5 2 .9 3.7.9 1.8 0 9.1.9 16.2 2 75.5 11.6 129.1 34.2 146.6 61.8 3.1 4.8 6.9 15.7 6.9 19.6 0 1.2-5.6 11.5-12.4 22.9-6.9 11.4-14 23.4-15.8 26.7-1.9 3.5-3.9 6-4.9 6-.9 0-6-.7-11.5-1.5-5.4-.8-12.6-1.5-16-1.5-5.7 0-6.7-.4-20-8.1-7.6-4.4-26.8-16.7-42.6-27.2L232 574.5v-3.8c0-3.7 0-3.7-4-3.7-3.8 0-4-.2-4-3 0-2.7-.3-3-3.2-3-2.8 0-3.7-.6-5.7-4.3-1.3-2.3-5.1-8.4-8.4-13.5-6-9.1-6.1-9.2-10.2-9.2h-4.1l-10.6-18.3c-14.3-24.5-18.7-32.5-24.3-43.6-3.4-6.9-4.9-9.1-5.6-8-2 3.1-8.9 26.1-10.8 36-5.4 27.9-5.4 53.6 0 85.9 5.2 31.2 14.5 59.9 33.5 102.7l1.4 3.1-8.7 5.8c-10.7 7.1-25.3 17.9-40.5 30.1-10.2 8.1-11.8 9.7-11.8 12.2s-.8 3.4-5.2 6c-19.4 11.2-34.3 32.2-42.2 59.4-3.1 10.7-5.6 27.1-5.6 36.9v7.5l16.8-3.8c65.9-15.1 111.1-15.7 152.2-1.9 6.3 2.1 14.5 5.2 18.3 6.9l6.7 3v7.6c0 7.3-9.5 67.2-10.8 68.7-3.4 3.5-49.4 4.5-69.2 1.5-61.2-9.4-122.8-38.2-167.2-77.9l-9.1-8.2.6 15.4c1.8 46.2 17.1 82.9 54.8 131.2 5 6.5 17.8 22 28.5 34.5l19.4 22.7v13.3l-12.6 20.9c-27.6 45.9-35.8 68.7-35.8 99.9 0 17.1 1.5 26.7 7 44.3l3.5 11.3 7.6-7.1c24.8-23.1 60.6-44.5 93.6-55.9 29.1-10 52.8-11.6 72.6-4.8 6.4 2.2 6.5 2.3 7.8 7.2 1.6 5.9 14.3 61.6 14.3 62.5 0 .3-2.4 3.2-5.2 6.5-24 26.9-82.4 37-161.8 27.9-20.7-2.4-51.8-7.8-70.5-12.3-13.2-3.2-17.1-3.9-17.7-2.9-.5.7-.7 4.8-.4 9.1.8 14.1 9.9 29.1 28.1 46.5 27.4 26.2 79.9 58.6 134.8 83.2 7.1 3.2 13 6 13.3 6.3.3.2-1.1 12.1-3 26.3-1.9 14.3-4 32.6-4.7 40.9-1.4 17.7-.7 43.3 1.5 55.8 3.6 20 11.7 37.9 22.4 49.8 5.1 5.6 17.5 15.9 19.2 15.9.4 0 4.4-7.3 8.8-16.2 13.6-27.5 30.3-51 50.1-70.8 22.8-22.7 44.4-35.5 67.1-39.6 13.3-2.4 11.7-3.3 22.9 13.3 5.4 8.2 14.4 21.1 19.9 28.8l10 14-2.8 7.8c-6.6 17.8-19.9 33.7-41.4 49.1-38.3 27.4-106.9 49.4-171.1 54.7-14.3 1.2-14.3 1.2-13.5 3.5 6 15.7 18.3 27 41.4 37.9 34.1 16.2 90.3 27.1 162.1 31.6 10.5.6 19.1 1.2 19.2 1.3 0 0 2.2 9.1 4.7 20.1 13.6 58.7 26.1 86.1 50.1 110 9.9 9.9 21.7 18.7 34.8 26 3.7 2 7 3.5 7.3 3.2.3-.3 2.1-7.9 4-16.9 15.5-74.4 33.6-119.6 56.7-141.4 7.5-7.1 14-10.7 22.6-12.5l5.3-1.1 8.7 5.3c9.9 6.1 44.2 29.7 45.4 31.3.5.6.6 6.5.4 13.1-1.2 30-16.6 58.9-49.7 92.9-27.4 28.2-64.1 56.1-104.5 79.5-7.7 4.4-14.6 8.4-15.4 8.9-1.9 1.1 17.2 7.5 30.2 10.2 18.8 3.9 26.6 4.5 56.7 4.5h29.5l13.5-3.7c7.4-2 29-8.4 48-14.2 39.3-11.9 43.1-13 51.7-15l6.3-1.4 11 15.1c38.4 53 64.6 75.6 102.5 88.3 12.4 4.1 39.5 9 39.5 7.1 0-.2-1.5-7.3-3.4-15.8-13-57.8-15.7-98.7-9-131.7 3-14.9 12.9-40.5 16.5-42.7 1.5-1 76.2 10.6 77.1 11.9 2 2.9 5.1 20.3 5.5 31.1.9 20.1-2.6 42.5-10.8 67.9-13.1 41-39.2 88.9-67.6 124-4.8 6-9.2 11.5-9.7 12.2-.7.8-.6 2.2.2 3.8 1.5 3.3.9 3.3 30.9-.3l24.2-2.9 11-5.1c32.9-15.6 63.9-34.5 90.3-55.1 7.7-6 33.4-30.8 40.6-39.2 2-2.4 4.4-3.9 6.6-4.3 3-.6 4.8.3 18.2 8.8 51.7 32.9 79.4 42.9 118.4 43 15.7 0 46.2-3.3 48.2-5.2 1-.9-9.1-19.2-25.4-45.6-26.9-43.7-35.3-61.5-40.4-85.5-2.7-12.7-2.4-31.7.7-43.5l2.4-9 15.5-3.7c46.4-11.3 54.3-12.5 58-8.8 3.5 3.5 13.8 26.1 18.9 41.5 17.5 52.7 19.7 114 6 167.9-3.1 12.5-8.5 27.9-12.5 35.8-1.3 2.6-2.4 5.1-2.4 5.6 0 1.7 8 2.3 14.2 1.2 34.3-6.2 79.2-61.5 131.3-161.4l8.8-16.8 3.6.6c39.8 6.6 64.8 9 86.5 8.3 24.5-.9 40.6-4.7 59.4-14.1 9.6-4.8 23.9-14.1 31.5-20.5l4.8-4-6.1-3.8c-16.2-10-43.4-28.3-54.4-36.6-14.9-11.3-35.7-31.3-44.3-42.7-3.5-4.7-8.6-13-11.3-18.5-6.6-13.2-9-23-9-36v-10.1l18.3-12.6c18.1-12.5 35-22.8 37.3-22.8 2.7 0 19.6 12.4 28.7 21 26.9 25.5 46.5 59.6 62.9 109.5 6 18.5 14.3 51.6 19.3 77.7 2.1 10.9 4.1 19.8 4.4 19.8 1.1-.1 12.8-15.4 19.5-25.3 7.6-11.4 17.7-31 23.1-44.6 12.1-31 20.5-78 25.1-139.8.4-5 .9-9.5 1.3-10.1.3-.5 8.7-3 18.6-5.6 55.3-14.6 86.8-27.9 110.6-46.6 16.1-12.7 26.9-31.2 26.9-46.2 0-3.5-.2-3.8-2.9-3.8-5.2 0-37.8-5.8-50.9-9.1-33.1-8.2-62.1-21.7-84.7-39.3-9.8-7.8-22-19.1-27.5-25.6l-4.1-4.8 5.3-10.4c2.9-5.7 10.9-20.1 17.8-32.1l12.4-21.8 3.2.6c4.5.8 27.4 8.6 35.4 12 12.4 5.2 28.6 14 40 21.6 39 26.2 68.2 59.5 109.5 124.8 5.6 8.9 8 11.9 8.6 10.9.4-.8 2.4-5.5 4.4-10.3 9.1-22.5 12.8-49.6 10.6-77-2.7-32.9-9.3-60.4-28.8-119.9-7-21.2-8.2-26.1-7.1-27 .7-.7 9.2-6.1 18.8-12.1 24.5-15.1 23.3-14.2 38.4-28.6 25.2-24.2 37.8-43.1 44.5-67.1 2.8-10 5.1-26.4 5.1-37v-8.7l-5.2 2.3c-8.5 3.8-23.1 8.3-35.1 11-47.4 10.6-98.4 7.6-130.8-7.7-7.1-3.4-19.9-12.4-19.9-14 0-.6 2.5-16.9 5.7-36.1l5.7-34.9 25.6.6c35.1.8 57.6 3.6 85.5 10.7 47.2 12 83.3 31.6 130.9 71.2l3.9 3.2-.6-18.9c-.4-14-1.1-21.4-2.6-28-10.4-44.9-37-87.9-88.3-142.6l-11.8-12.7v-5.7c0-5.4.5-6.7 10.9-24.9 19.5-34.2 28.4-53.8 33.4-73.1 5.3-20.2 5.8-39.7 1.5-59.5-2.1-9.9-7.5-26-8.7-26-2 0-7.4 6-8.5 9.5-1.6 4.8-5 6.9-38.6 23.9-45.7 23.1-78.5 35-103 37.2-13.3 1.1-25.6-2.6-30.7-9.3-4.9-6.4-11.3-38.4-11.6-58.3l-.2-11.4 8.5-4.3c10.6-5.3 30.6-13.2 42.5-16.7 56.5-16.4 120.5-14.6 188.9 5.4 7.5 2.2 13.9 4 14.1 4 .9 0-4.3-12.8-9-22.2-14.7-29.5-37.8-54-73-77.5-18.3-12.2-42.8-25.2-75.9-40.4-13-5.9-17.2-8.3-17.9-10.1-1.2-3-.1-27.9 2.4-53.8 5.1-53.5 3.3-77.3-7.5-99.5-2.4-5-6.7-12-9.4-15.6-5.1-6.6-16.8-17.9-18.7-17.9-.5 0-3.2 4.2-6 9.2-6.6 12.1-19.3 31.2-29.6 44.5-10.4 13.4-33.6 36.9-44.7 45.2-21.1 15.9-44 25.6-62 26.3l-6.7.3-6.8-9c-3.7-5-12.1-16.9-18.6-26.5l-11.9-17.6 4.5-6.4c10.9-15.6 27.4-32.8 43.3-45.1 38.1-29.7 84.5-47.9 163.5-64.4 9.4-1.9 18.1-3.7 19.4-4l2.4-.6-2.4-2.5c-7.8-8.4-28.9-23.2-44.6-31.2-38.4-19.7-82-28.4-155-30.8-18.3-.6-21.3-.9-21.7-2.3-.2-.9-2.6-10.8-5.1-22.1-16.2-70.9-34.1-105.3-64.9-124.5-9.5-5.9-30.6-13.5-30.6-11 0 2.4-3.6 25.7-5.6 36-15.6 81-43.4 130.3-76.7 136.4l-5.8 1-11.8-8.2c-6.5-4.6-17.9-12.3-25.4-17.1l-13.7-8.9v-9.1c0-17.2 4-32.7 12.9-51.1 10.5-21.4 22.8-38 44.6-60.4 28.5-29.2 64.9-55.7 97.7-71.1 11.3-5.3 11.7-5.6 11.8-8.7 0-3-.3-3.2-8.7-6.3-34.5-12.5-77.6-13.2-126.8-2-17.8 4.1-44.7 12-69.1 20.4-15.3 5.3-20.3 6.6-25.1 6.6h-6.1l-14.2-19.2c-40.7-54.6-61.6-72-100.2-83.2-11.5-3.3-35.8-6.9-35.8-5.3 0 .2 2.2 11.6 4.9 25.3 7.7 38.6 10.1 58.5 10.1 82.6 0 23.5-3.6 43.4-11.2 61.5-3.7 9-11.9 21.7-14.9 23.4-4.7 2.4-20.7.5-44.3-5.5-12.1-3.1-22.8-5.6-23.7-5.6-3.9 0-7.4-26.2-6.6-49 1.7-48.4 21.3-96.2 71.3-174.5 6.3-9.8 7.4-11 10.7-11.8 3.4-.8 3.7-1.2 3.7-4.2 0-1.9.6-3.7 1.2-4.1.9-.6.5-1-1.2-1.5-2.8-.8-33.4-.9-36.5-.2zm-123 637.3c121 10.1 230.4 73.7 298.9 173.7 30.9 45.1 53.1 98.3 63.1 151.3 6 32.3 8.2 78.9 5.1 111-10.7 111.9-63.7 210-151.1 279.8-5.5 4.4-10.1 7.9-10.1 7.9-.8-.8-57.5-220-57.2-221.1.2-.7 45.9-44.3 101.7-96.7l101.4-95.4-3.9-1.1c-2.1-.6-62.4-16.1-133.9-34.4-71.5-18.3-130.4-33.7-131-34.1-.5-.4-25.7-54.5-56-120.3-30.2-65.8-55.4-119.4-55.8-119.3-.4.1-27.3 54.8-59.6 121.6-32.4 66.8-59.5 121.7-60.2 122.1-.8.4-60 13.9-131.7 30.1-71.6 16.1-130.1 29.5-130 29.9.2.3 44.9 44.1 99.3 97.5 54.5 53.3 99.1 97.4 99.3 98.1.3 1.1-61.7 214.3-63.6 218.8-.7 1.6-1.8 1.1-9.6-5.2-36.3-29.1-65.8-62.4-91.5-103.2-9.5-15.2-26.6-49.9-33.5-68-43.6-115.3-32-245.4 31.4-350 22.1-36.5 54.7-74.5 86.3-100.6 60.4-49.8 131.8-80.8 208.2-90.4 8.8-1.1 18.3-2.1 21-2.3 11.8-.8 52-.6 63 .3zm87.1 660.6c62.7 36.1 114.1 65.8 114.3 66 .5.5-27 18.2-37.6 24.3-44.8 25.4-96.3 42-151.3 48.8-20.3 2.5-69.4 2.5-90 0-60.5-7.3-114-25.4-163.5-55.2-12.5-7.5-31-19.9-31.9-21.3-.2-.4 55-29.3 122.7-64.4 67.8-35 123.3-63.7 123.3-63.7.1-.1 51.4 29.4 114 65.5z"/></svg>